<svg width="28" height="28" viewBox="0 0 28 28" fill="none"
                                    xmlns="http://www.w3.org/2000/svg">
                                    <g clip-path="url(#clip0_389_9825)">
                                        <path
                                            d="M12.333 21H6.33301M9.33301 3.5V21M9.33301 3.5C7.94563 3.5 6.16348 3.6431 4.74462 3.78404C4.14451 3.84365 3.84445 3.87346 3.57886 3.97858C3.02645 4.19724 2.58116 4.67664 2.41358 5.23315C2.33301 5.50071 2.33301 5.80603 2.33301 6.41667M9.33301 3.5C10.7204 3.5 12.5025 3.6431 13.9214 3.78404C14.5215 3.84365 14.8216 3.87346 15.0872 3.97858C15.6396 4.19724 16.0849 4.67664 16.2524 5.23315C16.333 5.50071 16.333 5.80603 16.333 6.41667"
                                            stroke="#000000" stroke-width="1.98333" stroke-linecap="round" />
                                        <path d="M21.4044 18.9458V20.9212H15.2926V18.9458H21.4044Z" fill="#000000" />
                                    </g>
                                    <defs>
                                        <clipPath id="clip0_389_9825">
                                            <rect width="28" height="28" fill="#000000" />
                                        </clipPath>
                                    </defs>
                                </svg>